<svg width="43" height="44" viewBox="0 0 43 44" fill="none" xmlns="http://www.w3.org/2000/svg">
<path d="M4.30009 20.9254C4.30009 10.8324 12.4821 2.65039 22.5751 2.65039C32.6681 2.65039 40.8501 10.8324 40.8501 20.9254C40.8501 31.0184 32.6681 39.2004 22.5751 39.2004C12.4821 39.2004 4.30009 31.0184 4.30009 20.9254Z" fill="white"/>
<path d="M21.5002 0.5C15.7978 0.5 10.3291 2.76513 6.29742 6.79735C2.26538 10.8297 0 16.2982 0 22C0 27.7018 2.26516 33.1714 6.29742 37.2026C10.3295 41.235 15.798 43.5 21.5002 43.5C27.202 43.5 32.6711 41.235 36.7028 37.2026C40.7356 33.1703 43 27.7018 43 22C42.9935 16.2993 40.727 10.8351 36.6963 6.80423C32.6657 2.77374 27.2009 0.506557 21.5002 0.5ZM31.9206 12.4422L25.7786 25.9549C25.7129 26.099 25.5986 26.214 25.4552 26.2785L11.9411 32.421C11.6939 32.5339 11.4027 32.4812 11.2106 32.2888C11.0187 32.0975 10.966 31.8061 11.0784 31.5589L17.221 18.0461C17.2862 17.9021 17.4006 17.7871 17.5442 17.7226L31.058 11.5789C31.3049 11.4671 31.5971 11.5198 31.789 11.7122C31.981 11.9036 32.0327 12.1949 31.9206 12.4422Z" fill="#1DD7C0"/>
</svg>
