<svg xmlns="http://www.w3.org/2000/svg" xmlns:xlink="http://www.w3.org/1999/xlink" viewBox="0,0,256,256" width="48px" height="48px"><g fill="#fefeff" fill-rule="nonzero" stroke="none" stroke-width="1" stroke-linecap="butt" stroke-linejoin="miter" stroke-miterlimit="10" stroke-dasharray="" stroke-dashoffset="0" font-family="none" font-weight="none" font-size="none" text-anchor="none" style="mix-blend-mode: normal"><g transform="scale(4,4)"><path d="M28,7c-2.757,0 -5,2.243 -5,5v3h-10c-1.104,0 -2,0.896 -2,2c0,1.104 0.896,2 2,2h2.10938l1.68359,30.33203c0.178,3.178 2.80723,5.66797 5.99023,5.66797h18.43359c3.182,0 5.81223,-2.48997 5.99023,-5.66797l1.68359,-30.33203h2.10938c1.104,0 2,-0.896 2,-2c0,-1.104 -0.896,-2 -2,-2h-10v-3c0,-2.757 -2.243,-5 -5,-5zM28,11h8c0.552,0 1,0.449 1,1v3h-10v-3c0,-0.551 0.448,-1 1,-1zM32,23.25c0.967,0 1.75,0.784 1.75,1.75v20c0,0.966 -0.783,1.75 -1.75,1.75c-0.967,0 -1.75,-0.784 -1.75,-1.75v-20c0,-0.966 0.783,-1.75 1.75,-1.75zM40.00781,23.25c0.965,0.034 1.7205,0.84455 1.6875,1.81055l-0.69727,20.08594c-0.033,0.946 -0.80709,1.69045 -1.74609,1.68945c-0.021,0 -0.0415,-0.00195 -0.0625,-0.00195c-0.965,-0.034 -1.7205,-0.84455 -1.6875,-1.81055l0.69531,-20.08594c0.034,-0.965 0.84255,-1.7145 1.81055,-1.6875zM23.99023,23.25195c0.964,-0.023 1.77655,0.7215 1.81055,1.6875l0.69727,20.08594c0.034,0.966 -0.7215,1.77655 -1.6875,1.81055c-0.02,0 -0.0415,0 -0.0625,0c-0.938,0 -1.71505,-0.74445 -1.74805,-1.68945l-0.69727,-20.08594c-0.034,-0.966 0.7215,-1.77459 1.6875,-1.80859z"></path></g></g></svg>